<svg xmlns="http://www.w3.org/2000/svg" xmlns:xlink="http://www.w3.org/1999/xlink" width="116.7101" height="134.7699" viewBox="0 0 116.7101 134.7699">
  <defs>
    <linearGradient id="a" x1="8.03674" y1="10.43388" x2="113.24926" y2="129.51525" gradientUnits="userSpaceOnUse">
      <stop offset="0.0508" stop-color="#ff3e9b"/>
      <stop offset="0.91066" stop-color="#af15ff"/>
    </linearGradient>
    <linearGradient id="b" x1="3.1084" y1="20.87083" x2="35.42571" y2="46.22222" gradientUnits="userSpaceOnUse">

      <stop offset="0" stop-color="#ff9e7e"/>
      <stop offset="1" stop-color="#ff3f88"/>
    </linearGradient>
    <linearGradient id="c" x1="59.17422" y1="30.30502" x2="96.43593" y2="59.53506" xlink:href="#b"/>
    <linearGradient id="d" x1="22.75701" y1="79.20032" x2="46.23426" y2="97.61711" xlink:href="#b"/>
    <linearGradient id="e" x1="-11.19307" y1="41.54512" x2="67.65186" y2="124.91506" gradientUnits="userSpaceOnUse">
         <stop offset="0" stop-color="#ff7a4d"/>
      <stop offset="1" stop-color="#ff21ca"/>
    </linearGradient>
    <linearGradient id="f" x1="80.01623" y1="76.47965" x2="106.28358" y2="103.556" xlink:href="#e"/>
    <linearGradient id="g" x1="16.65986" y1="38.74606" x2="43.78879" y2="88.65457" xlink:href="#a"/>
    <linearGradient id="h" x1="42.00921" y1="-1.59251" x2="74.33474" y2="23.76533" xlink:href="#b"/>
    <linearGradient id="i" x1="34.67947" y1="19.39619" x2="56.6225" y2="50.72226" xlink:href="#e"/>
    <linearGradient id="j" x1="61.28092" y1="15.8871" x2="76.50591" y2="43.17926" xlink:href="#a"/>
    <linearGradient id="k" x1="62.3681" y1="55.75125" x2="114.98021" y2="115.29856" xlink:href="#a"/>
  </defs>
  <polygon points="97.26 22.46 77.81 33.69 77.81 11.23 58.35 0 38.9 11.23 38.9 33.69 19.45 22.46 0 33.69 0 101.08 19.45 112.31 58.35 134.77 77.81 123.54 77.81 101.08 97.26 112.31 116.71 101.08 116.71 33.69 97.26 22.46" style="fill: url(#a)"/>
  <g>
    <polygon points="38.9 33.69 19.45 44.92 0 33.69 19.45 22.46 38.9 33.69" style="fill: url(#b)"/>
    <polygon points="116.71 33.69 77.81 56.15 58.35 67.38 38.9 56.15 58.35 44.92 77.81 33.69 97.26 22.46 116.71 33.69" style="fill: url(#c)"/>
    <polygon points="38.9 78.62 38.9 101.08 19.45 89.85 38.9 78.62" style="fill: url(#d)"/>
    <polygon points="58.35 67.38 58.35 134.77 19.45 112.31 0 101.08 0 33.69 19.45 44.92 19.45 89.85 38.9 101.08 38.9 56.15 58.35 67.38" style="fill: url(#e)"/>
    <polygon points="97.26 67.38 97.26 112.31 77.81 101.08 77.81 78.62 97.26 67.38" style="fill: url(#f)"/>
    <polygon points="38.9 33.69 38.9 78.62 19.45 89.85 19.45 44.92 38.9 33.69" style="fill: url(#g)"/>
    <polygon points="77.81 11.23 58.35 22.46 38.9 11.23 58.35 0 77.81 11.23" style="fill: url(#h)"/>
    <polygon points="58.35 22.46 58.35 44.92 38.9 56.15 38.9 11.23 58.35 22.46" style="fill: url(#i)"/>
    <polygon points="77.81 11.23 77.81 33.69 58.35 44.92 58.35 22.46 77.81 11.23" style="fill: url(#j)"/>
    <polygon points="116.71 33.69 116.71 101.08 97.26 112.31 97.26 67.38 77.81 78.62 77.81 123.54 58.35 134.77 58.35 67.38 77.81 56.15 116.71 33.69" style="fill: url(#k)"/>
  </g>
</svg>
